<svg width="42" height="42" viewBox="0 0 42 42" fill="none" xmlns="http://www.w3.org/2000/svg">
<path d="M21 15.75C21.591 15.7553 22.18 15.6787 22.75 15.5225V36.75C22.75 37.2141 22.5656 37.6592 22.2374 37.9874C21.9092 38.3156 21.4641 38.5 21 38.5C20.5359 38.5 20.0908 38.3156 19.7626 37.9874C19.4344 37.6592 19.25 37.2141 19.25 36.75V15.5225C19.82 15.6787 20.409 15.7553 21 15.75V15.75Z" fill="black"/>
<path d="M33.25 28C33.841 28.0053 34.43 27.9287 35 27.7725V36.75C35 37.2141 34.8156 37.6592 34.4874 37.9874C34.1592 38.3156 33.7141 38.5 33.25 38.5C32.7859 38.5 32.3408 38.3156 32.0126 37.9874C31.6844 37.6592 31.5 37.2141 31.5 36.75V27.7725C32.07 27.9287 32.659 28.0053 33.25 28V28Z" fill="black"/>
<path d="M35 5.25V14.2275C33.8531 13.9241 32.6469 13.9241 31.5 14.2275V5.25C31.5 4.78587 31.6844 4.34075 32.0126 4.01256C32.3408 3.68437 32.7859 3.5 33.25 3.5C33.7141 3.5 34.1592 3.68437 34.4874 4.01256C34.8156 4.34075 35 4.78587 35 5.25V5.25Z" fill="black"/>
<path d="M10.5 5.25V26.4775C9.92996 26.3213 9.34104 26.2447 8.75 26.25C8.15896 26.2447 7.57004 26.3213 7 26.4775V5.25C7 4.78587 7.18437 4.34075 7.51256 4.01256C7.84075 3.68437 8.28587 3.5 8.75 3.5C9.21413 3.5 9.65925 3.68437 9.98744 4.01256C10.3156 4.34075 10.5 4.78587 10.5 5.25V5.25Z" fill="black"/>
<path d="M14 33.25C14.0027 34.2131 13.7404 35.1584 13.2418 35.9824C12.7433 36.8065 12.0276 37.4775 11.1732 37.922C10.3189 38.3666 9.35865 38.5675 8.39771 38.5029C7.43676 38.4383 6.51211 38.1105 5.72494 37.5556C4.93778 37.0006 4.31844 36.2398 3.93471 35.3565C3.55097 34.4731 3.41763 33.5012 3.54928 32.5471C3.68092 31.593 4.07248 30.6936 4.6811 29.9471C5.28972 29.2007 6.09195 28.636 6.99998 28.315C8.12891 27.8953 9.37105 27.8953 10.5 28.315C11.5212 28.676 12.4057 29.3441 13.0323 30.2276C13.6589 31.1111 13.9969 32.1668 14 33.25Z" fill="#FFAA00"/>
<path d="M26.25 8.75C26.2469 9.83315 25.9089 10.8889 25.2823 11.7724C24.6557 12.6559 23.7712 13.324 22.75 13.685C21.6211 14.1047 20.3789 14.1047 19.25 13.685C18.3419 13.364 17.5397 12.7993 16.9311 12.0529C16.3225 11.3064 15.9309 10.4069 15.7993 9.45287C15.6676 8.49879 15.801 7.52688 16.1847 6.64351C16.5684 5.76014 17.1878 4.99935 17.9749 4.4444C18.7621 3.88945 19.6868 3.56172 20.6477 3.4971C21.6087 3.43247 22.5689 3.63342 23.4233 4.07797C24.2776 4.52252 24.9933 5.19352 25.4918 6.01756C25.9904 6.84159 26.2527 7.78689 26.25 8.75V8.75Z" fill="#FFAA00"/>
<path d="M38.5001 21C38.497 22.0832 38.1591 23.1389 37.5325 24.0224C36.9058 24.9059 36.0213 25.574 35.0001 25.935C33.8712 26.3547 32.629 26.3547 31.5001 25.935C30.4866 25.5672 29.6109 24.8962 28.9921 24.0132C28.3732 23.1303 28.0413 22.0782 28.0413 21C28.0413 19.9218 28.3732 18.8697 28.9921 17.9868C29.6109 17.1039 30.4866 16.4329 31.5001 16.065C32.629 15.6454 33.8712 15.6454 35.0001 16.065C36.0213 16.4261 36.9058 17.0941 37.5325 17.9776C38.1591 18.8612 38.497 19.9169 38.5001 21V21Z" fill="#FFAA00"/>
</svg>
